<?xml version="1.0" encoding="utf-8"?>
<!-- Generator: Adobe Illustrator 19.2.0, SVG Export Plug-In . SVG Version: 6.00 Build 0)  -->
<svg version="1.1" id="Layer1" xmlns="http://www.w3.org/2000/svg" xmlns:xlink="http://www.w3.org/1999/xlink" x="0px" y="0px"
	 viewBox="0 0 413.8 157.2" style="enable-background:new 0 0 413.8 157.2;" xml:space="preserve">
<style type="text/css">
	.st0{opacity:0.86;fill:url(#XMLID_2_);}
	.st1{opacity:0.8;fill:url(#XMLID_3_);}
	.st2{fill:#FFFFFF;}
	.st3{font-family:'Sarina-Regular';}
	.st4{font-size:120px;}
	.st5{fill:#EE2A7B;}
	.st6{fill:#7F3F98;}
	.st7{fill:#C2B4D8;}
</style>
<g>
	<linearGradient id="XMLID_2_" gradientUnits="userSpaceOnUse" x1="182.0053" y1="76.7815" x2="30.4563" y2="76.7815">
		<stop  offset="0" style="stop-color:#EE2A7B"/>
		<stop  offset="0.9951" style="stop-color:#7F3F98"/>
	</linearGradient>
	<path id="XMLID_40_" class="st0" d="M32,47.6c6.9-15,42.6-42.2,54-44.3c9.1-1.7,75.2,10.8,80.5,20.7C176.8,43.1,184.9,90,181,95.4
		c-3.5,4.9-27.8,21.3-47.3,6.7c-24-18.1-17-15.8-8.4-20.2c3.6-1.8,21.2-6.6,22.9-17.6s0.6-12.2-6.8-19.9c-7.5-7.8-14.3-7.9-29.1-6.7
		s-33.6,3.1-37.8,9.6s33.8-9.2,0.8,29.8c-10.3,12.2-17.5,30.8-16,35.2c1.5,4.5,13.5,4,18.2,1.2s7.6-11.8,6.6-17.5s8.1-11,7.9-19.8
		s-1.5-11,5-18s23.8-14.8,29-8.8s7.5,18.3,3.8,23.5s-19,8.8-20.2,16.2c-1.2,7.4-1.4,16.1,7.4,25.6s17.4,15.5,22.5,21.1
		c4,4.4-3.7,8.1-7.7,10c-4.4,2-28.4,5.4-38.7,4.4c-17.3-1.8-39.5-22-43-25.9C35.7,108.2,26.7,59.2,32,47.6z"/>
	<linearGradient id="XMLID_3_" gradientUnits="userSpaceOnUse" x1="26.6644" y1="81.6671" x2="189.7833" y2="81.6671">
		<stop  offset="0" style="stop-color:#EC008C"/>
		<stop  offset="0.9951" style="stop-color:#DA1C5C"/>
	</linearGradient>
	<path id="XMLID_39_" class="st1" d="M177.2,110.5c2.7-0.4,15.5-19.4,12-37.9c-2.8-15-48-59.4-60.3-61.7
		C111,7.6,62.2,19.6,55.2,27.3c-6.9,7.6-30.3,52.9-28.4,68.2c1.9,15.7,44.4,54.5,56.6,57c12.3,2.5,44.9-7.2,47.6-11.3
		c2.5-3.8,3.3-6.4,0-10c-8.5-9.3-52.4-9.2-51.7-34S93.2,45.8,119,38.6c4-1.1,21.8-3.5,29.9,5.8c21.7,24.8,11.7,44.7,12.6,51.6
		C163.2,109.5,174.6,110.9,177.2,110.5z"/>
	<text id="XMLID_38_" transform="matrix(1 8.000000e-03 -8.000000e-03 1 44.528 115.9817)" class="st2 st3 st4">R</text>
	<path id="XMLID_30_" class="st5" d="M165.1,12.9c0,0-1.9-1.4-0.5-4.1s3.4-2.4,4.4-2c0.8,0.3,1.8,2.5,0.3,4.4S166.2,13.5,165.1,12.9
		z"/>
	<path id="XMLID_34_" class="st6" d="M152.9,129c-0.9,0.7,0.4,6.2,4.2,12.5c4.2,7,12.9,10.8,15.4,8.4c3.6-3.3-1.5-10.7-4.8-13.7
		C165.4,134.1,154.4,127.8,152.9,129z"/>
	<path id="XMLID_33_" class="st5" d="M160.5,123.3c0,0,0.7,3.2,6.1,4.1c3.5,0.6,6.6,0.2,7.1-1.5c0.4-1.4-1.5-5.1-7.6-5
		C159.9,120.9,160.5,123.3,160.5,123.3z"/>
	<path id="XMLID_32_" class="st7" d="M24.2,104.4c0-1.1-3.7-3.7-9-4.7c-5.8-1.2-11.7,3.1-11.5,6.5c0.3,4.8,6.8,5.7,9.9,5
		C15.8,110.7,24.2,106.3,24.2,104.4z"/>
	<path id="XMLID_31_" class="st6" d="M23,113c0,0-3.9-0.9-7.8,2.8c-3.8,3.7-1.1,6.5,0,7.5c1.1,0.9,5.8,2.2,8.2-3.4
		C25.8,114.2,23,113,23,113z"/>
	<g>
		<path class="st2" d="M192.3,102.6c-3.5,3-8.5,4.6-15.2,4.6c-6.7,0-11.8-1.5-15.2-4.6s-5.2-7.8-5.2-14.4s1.7-11.4,5.2-14.4
			c3.5-3,8.6-4.5,15.2-4.5c6.7,0,11.8,1.5,15.2,4.5c3.5,3,5.2,7.8,5.2,14.4S195.8,99.6,192.3,102.6z M185.4,79.1c-1.7-2-4.5-3-8.3-3
			s-6.6,1-8.3,3s-2.6,5.1-2.6,9.1s0.9,7,2.6,9.1s4.5,3,8.3,3s6.6-1,8.3-3s2.6-5,2.6-9.1S187.1,81.2,185.4,79.1z"/>
		<path class="st2" d="M200.9,72.1c-0.1-0.2-0.2-0.4-0.2-0.7c0-0.2,0.2-0.5,0.5-0.9c0.3-0.4,0.8-0.5,1.3-0.5h5.6
			c1.3,0,2.3,0.8,3,2.4l9.8,21.9l9.8-21.9c0.7-1.6,1.7-2.4,3-2.4h5.6c0.6,0,1,0.2,1.3,0.5c0.3,0.4,0.5,0.7,0.5,0.9
			c0,0.2,0,0.5-0.1,0.7l-14.6,31.7c-0.8,1.7-2,2.6-3.6,2.6h-3.7c-1.6,0-2.8-0.9-3.6-2.6L200.9,72.1z"/>
		<path class="st2" d="M242,104.1l6.4-24.2c1.7-6.6,7.3-9.9,16.9-9.9h13.7c0.6,0,1.1,0.2,1.6,0.7c0.4,0.5,0.6,1,0.6,1.7v31.7
			c0,0.7-0.2,1.2-0.7,1.7s-1,0.7-1.7,0.7h-4.8c-0.7,0-1.3-0.2-1.7-0.7s-0.7-1-0.7-1.7v-6.4h-18.1l-1.7,6.4c-0.2,0.7-0.5,1.3-1.1,1.7
			s-1.2,0.7-1.9,0.7h-5c-0.7,0-1.1-0.2-1.4-0.6s-0.4-0.7-0.4-1S242,104.3,242,104.1z M255.4,90.4h16.2V77.2h-7.2
			c-1.6,0-3,0.5-4.3,1.4c-1.2,0.9-2,2.2-2.5,3.7L255.4,90.4z"/>
		<path class="st2" d="M290.3,104.1V72.5c0-0.7,0.2-1.3,0.7-1.8c0.5-0.5,1-0.7,1.7-0.7h14.2c7.3,0,12.7,1.5,16,4.4
			c3.3,2.9,5,7.5,5,13.8c0,6.3-1.7,10.9-5,13.8s-8.7,4.4-16,4.4h-14.2c-0.7,0-1.2-0.2-1.7-0.7S290.3,104.7,290.3,104.1z M299.9,99.2
			h6.8c4.6,0,7.7-0.8,9.3-2.5s2.5-4.5,2.5-8.5s-0.8-6.9-2.5-8.5c-1.6-1.7-4.7-2.5-9.3-2.5h-6.8V99.2z"/>
		<path class="st2" d="M335.1,104V72.4c0-0.7,0.2-1.2,0.7-1.7s1-0.7,1.7-0.7h29.3c0.7,0,1.2,0.2,1.7,0.7c0.5,0.5,0.7,1,0.7,1.7v2.4
			c0,0.7-0.2,1.2-0.7,1.7c-0.5,0.5-1,0.7-1.7,0.7h-22.1v7.4h19c0.7,0,1.2,0.2,1.7,0.7s0.7,1,0.7,1.7v2.4c0,0.7-0.2,1.2-0.7,1.7
			s-1,0.7-1.7,0.7h-19v7.5h22.1c0.6,0,1.2,0.2,1.7,0.7s0.7,1,0.7,1.7v2.4c0,0.7-0.2,1.2-0.7,1.7s-1,0.7-1.7,0.7h-29.1
			c-0.7,0-1.2-0.2-1.7-0.7S335.1,104.7,335.1,104z"/>
		<path class="st2" d="M374,106.4c-0.8,0-1.3-0.4-1.4-1.1c0-0.4,0.2-0.8,0.5-1.2L386,87.7l-12.1-15.3c-0.4-0.4-0.5-0.9-0.5-1.2
			c0-0.8,0.5-1.2,1.4-1.2h5.5c1.7,0,3.2,0.8,4.4,2.4l7,8.8l7-8.8c1.3-1.6,2.7-2.4,4.4-2.4h5.5c0.9,0,1.4,0.4,1.4,1.2
			c0,0.4-0.2,0.8-0.5,1.2l-12.1,15.3l12.8,16.3c0.4,0.4,0.5,0.8,0.5,1.1s0,0.5-0.1,0.6c-0.2,0.5-0.6,0.7-1.3,0.7h-5.4
			c-1.7,0-3.2-0.8-4.4-2.4l-7.7-9.9l-7.7,9.9c-1.3,1.6-2.7,2.4-4.4,2.4H374z"/>
	</g>
</g>
</svg>
