<svg xmlns="http://www.w3.org/2000/svg" width="350" viewBox="0 0 415 157"><path class="shape-1" fill="#009ED2" opacity=".5" d="M26.3 46.5c6.9-15 42.6-42.2 54-44.3C89.4.5 155.5 13 160.8 22.9c10.3 19.1 19.4 74.2 15.5 79.5-16.4 4.9-17.8 4.5-33.9 23.4-3.9 4.5-12.4 17.1-16.4 19-4.4 2-28.4 5.4-38.7 4.4-17.3-1.8-39.5-22-43-25.9C30 107.2 21 58.2 26.3 46.5z"/><path class="shape-2" fill="#008AC9" opacity=".8" d="M173.9 107.4c2.7-.4 15.5-19.4 12-37.9-2.8-15-48-59.4-60.3-61.7-17.9-3.3-66.7 8.7-73.7 16.4-6.9 7.6-30.3 53-28.4 68.3 1.9 15.7 44.4 54.5 56.6 57 12.3 2.5 44.9-7.2 47.6-11.3 2.5-3.8 3.3-6.4 0-10-8.5-9.3-52.4-9.2-51.7-34s13.9-51.4 39.7-58.7c4-1.1 21.8-3.5 29.9 5.8 21.7 24.8 11.7 44.7 12.6 51.6 1.7 13.5 13.1 14.9 15.7 14.5z"/><path class="main-symbol" fill="#fff" d="M49.2 64.6c-2.5 0-3.7-1.2-3.7-3.6 0-1.1.6-3.1 1.7-5.9 1.2-2.9 2.1-5.1 3-6.7 1.9-3.7 3.8-6.3 5.8-7.7 3.1-2.3 15.4-4.3 36.7-6 9.3-.7 16-1 20.2-1 4.2 0 7.2.1 9 .2 1.8.1 3.6.4 5.5.7s3.8.7 5.7 1.2c1.9.5 3.7 1 5.4 1.7 3.7 1.5 6.3 3.3 7.7 5.5 4.6 6.8 6.9 12.3 6.8 16.6 0 4.8-3.7 9.4-11 13.9-2.2 1.4-4.6 2.8-7.1 4.2-9.1 4.8-14.5 7.7-16.1 8.6 3.2 6.4 9.6 13 19.1 19.9 1.1.8 2 1.4 2.7 1.8 2.9 1.7 6.4 1.5 10.4-.7 1.1-.7 2.2-1 3.3-1 1.1 0 2.1.4 3 1.3.9.8 1.3 1.8 1.3 2.8 0 4.6-3.2 9.6-9.4 14.9-4.6 3.9-8.8 5.9-12.5 5.9-3 0-9.5-4.5-19.5-13.4-5.7-5-10.3-9.6-13.8-13.5-3.5-4-5.9-6.9-7.3-8.9-1.3-1.9-2-3.6-2-5s.4-2.7 1.1-3.7c.7-1.1 1.6-2.1 2.8-3.1 1.8-1.5 4.5-3.2 7.9-4.9 3.4-1.7 6.2-3.4 8.4-5s4-3.2 5.6-4.9c3.5-3.6 5.2-6.9 5.2-9.8 0-1.9-.6-3.5-1.7-4.8-2.1-2.3-4.1-3.5-5.9-3.5-3.2 0-7 .2-11.6.6l-7.2 12.6c-9.2 16.5-15.6 31.3-19 44.5-1.4 5.1-6.4 7.7-15.1 7.6-7.2-.1-11.8-1.8-13.7-5.1-.7-1.1-.9-2.2-.7-3.3.2-1.1.7-2.5 1.6-4.2.9-1.7 2.1-3.9 3.6-6.5l5.3-8.9 6.5-10.4 7.3-11.3L82 54.6c-13.7 2.8-23.6 5.9-29.9 9.3-1 .5-1.9.7-2.9.7z"/><path class="drop drop-1" fill="#008AC9" d="M149.1 126c-.9.7.4 6.2 4.2 12.5 4.2 7 12.9 10.8 15.4 8.4 3.6-3.3-1.5-10.7-4.8-13.7-2.4-2.1-13.3-8.4-14.8-7.2z"/><path class="drop drop-2" fill="#BFB6DA" d="M156.6 120.3s.7 3.2 6.1 4.1c3.5.6 6.6.2 7.1-1.5.4-1.4-1.5-5.1-7.6-5s-5.6 2.4-5.6 2.4z"/><path class="drop drop-3" fill="#6CCCDD" d="M20.5 101.3c0-1.1-3.7-3.7-9-4.7-5.8-1.2-11.7 3-11.5 6.5.3 4.8 6.8 5.7 9.9 5 2.2-.5 10.6-4.9 10.6-6.8z"/><path class="drop drop-4" fill="#008AC9" d="M19.3 109.9s-3.9-.9-7.8 2.8c-3.8 3.7-1.1 6.5 0 7.5s5.8 2.2 8.2-3.4-.4-6.9-.4-6.9z"/><path class="drop drop-5" fill="#BFB6DA" d="M161.2 9.8s-1.9-1.4-.5-4.1 3.4-2.4 4.4-2c.8.3 1.8 2.5.3 4.4s-3 2.3-4.2 1.7z"/><g><path class="symbol symbol-1" fill="#FFF" d="M192.3 102.6c-3.5 3-8.5 4.6-15.2 4.6s-11.8-1.5-15.2-4.6-5.2-7.8-5.2-14.4 1.7-11.4 5.2-14.4 8.6-4.5 15.2-4.5c6.7 0 11.8 1.5 15.2 4.5 3.5 3 5.2 7.8 5.2 14.4s-1.7 11.4-5.2 14.4zm-6.9-23.5c-1.7-2-4.5-3-8.3-3s-6.6 1-8.3 3-2.6 5.1-2.6 9.1.9 7 2.6 9.1 4.5 3 8.3 3 6.6-1 8.3-3 2.6-5 2.6-9.1-.9-7-2.6-9.1z"/><path class="symbol symbol-2" fill="#FFF" d="M200.9 72.1c-.1-.2-.2-.4-.2-.7 0-.2.2-.5.5-.9s.8-.5 1.3-.5h5.6c1.3 0 2.3.8 3 2.4l9.8 21.9 9.8-21.9c.7-1.6 1.7-2.4 3-2.4h5.6c.6 0 1 .2 1.3.5.3.4.5.7.5.9 0 .2 0 .5-.1.7l-14.6 31.7c-.8 1.7-2 2.6-3.6 2.6h-3.7c-1.6 0-2.8-.9-3.6-2.6l-14.6-31.7z"/><path class="symbol symbol-3" fill="#FFF" d="M242 104.1l6.4-24.2c1.7-6.6 7.3-9.9 16.9-9.9H279c.6 0 1.1.2 1.6.7.4.5.6 1 .6 1.7v31.7c0 .7-.2 1.2-.7 1.7s-1 .7-1.7.7H274c-.7 0-1.3-.2-1.7-.7s-.7-1-.7-1.7v-6.4h-18.1l-1.7 6.4c-.2.7-.5 1.3-1.1 1.7s-1.2.7-1.9.7h-5c-.7 0-1.1-.2-1.4-.6s-.4-.7-.4-1v-.8zm13.4-13.7h16.2V77.2h-7.2c-1.6 0-3 .5-4.3 1.4-1.2.9-2 2.2-2.5 3.7l-2.2 8.1z"/><path class="symbol symbol-4" fill="#FFF" d="M290.3 104.1V72.5c0-.7.2-1.3.7-1.8s1-.7 1.7-.7h14.2c7.3 0 12.7 1.5 16 4.4s5 7.5 5 13.8-1.7 10.9-5 13.8-8.7 4.4-16 4.4h-14.2c-.7 0-1.2-.2-1.7-.7s-.7-1-.7-1.6zm9.6-4.9h6.8c4.6 0 7.7-.8 9.3-2.5s2.5-4.5 2.5-8.5-.8-6.9-2.5-8.5c-1.6-1.7-4.7-2.5-9.3-2.5h-6.8v22z"/><path class="symbol symbol-5" fill="#FFF" d="M335.1 104V72.4c0-.7.2-1.2.7-1.7s1-.7 1.7-.7h29.3c.7 0 1.2.2 1.7.7s.7 1 .7 1.7v2.4c0 .7-.2 1.2-.7 1.7s-1 .7-1.7.7h-22.1v7.4h19c.7 0 1.2.2 1.7.7s.7 1 .7 1.7v2.4c0 .7-.2 1.2-.7 1.7s-1 .7-1.7.7h-19v7.5h22.1c.6 0 1.2.2 1.7.7s.7 1 .7 1.7v2.4c0 .7-.2 1.2-.7 1.7s-1 .7-1.7.7h-29.1c-.7 0-1.2-.2-1.7-.7s-.9-1.1-.9-1.8z"/><path class="symbol symbol-6" fill="#FFF" d="M374 106.4c-.8 0-1.3-.4-1.4-1.1 0-.4.2-.8.5-1.2L386 87.7l-12.1-15.3c-.4-.4-.5-.9-.5-1.2 0-.8.5-1.2 1.4-1.2h5.5c1.7 0 3.2.8 4.4 2.4l7 8.8 7-8.8c1.3-1.6 2.7-2.4 4.4-2.4h5.5c.9 0 1.4.4 1.4 1.2 0 .4-.2.8-.5 1.2l-12.1 15.3 12.8 16.3c.4.4.5.8.5 1.1s0 .5-.1.6c-.2.5-.6.7-1.3.7h-5.4c-1.7 0-3.2-.8-4.4-2.4l-7.7-9.9-7.7 9.9c-1.3 1.6-2.7 2.4-4.4 2.4H374z"/></g></svg>